<?xml version="1.0" encoding="UTF-8"?>
<svg xmlns="http://www.w3.org/2000/svg" viewBox="0 0 1268.33 1040.85">
  <defs>
    <style>
      .cls-1 {
        fill: #082947;
      }

      .cls-1, .cls-2, .cls-3, .cls-4, .cls-5 {
        stroke-width: 0px;
      }

      .cls-6 {
        stroke-width: 10.5px;
      }

      .cls-6, .cls-7, .cls-8, .cls-9, .cls-10, .cls-11, .cls-12, .cls-13, .cls-14, .cls-15, .cls-16, .cls-17, .cls-18, .cls-19, .cls-20 {
        stroke: #000;
        stroke-miterlimit: 10;
      }

      .cls-6, .cls-8 {
        fill: #d8c427;
      }

      .cls-7 {
        fill: #ce231c;
      }

      .cls-7, .cls-10 {
        stroke-width: 12.78px;
      }

      .cls-8 {
        stroke-width: 9.75px;
      }

      .cls-9 {
        stroke-width: 6.29px;
      }

      .cls-9, .cls-10, .cls-11, .cls-12, .cls-14, .cls-15, .cls-16, .cls-17, .cls-20 {
        fill: none;
      }

      .cls-11 {
        stroke-width: 10.04px;
      }

      .cls-2 {
        fill: #f2484b;
      }

      .cls-12 {
        stroke-width: 11.11px;
      }

      .cls-13 {
        fill: #4c3b3b;
        stroke-width: 6.66px;
      }

      .cls-3, .cls-19 {
        fill: #000;
      }

      .cls-14 {
        stroke-width: 8px;
      }

      .cls-15 {
        stroke-width: 2.13px;
      }

      .cls-16 {
        stroke-width: 6.89px;
      }

      .cls-17, .cls-18 {
        stroke-width: 11.27px;
      }

      .cls-18 {
        fill: #84996b;
      }

      .cls-4 {
        fill: #6da8d6;
      }

      .cls-5 {
        fill: #ffcc75;
      }

      .cls-19 {
        stroke-width: 11.31px;
      }

      .cls-20 {
        stroke-width: 7.34px;
      }
    </style>
  </defs>
  <g id="antena">
    <path class="cls-19" d="M185.7,168.65v-23.55c-8.19-3.91-22.15-12.15-32.49-28.02-14.41-22.12-12.68-45.11-11.91-55.28,1.22-16.24,6.1-28.94,9.82-36.76,7.29-2.67,33.88-11.41,63.47.22,6.6,2.6,30.85,12.13,43.41,37.85,5.56,11.39,6.89,21.98,7.19,28.63,10.28,1.52,20.57,3.04,30.85,4.56-16.73,16.07-33.46,32.14-50.19,48.21-20.05,8.05-40.1,16.09-60.15,24.14Z"/>
  </g>
  <g id="Device">
    <path class="cls-7" d="M634.16,8.24c-8.13-1.4-18.37-2.36-30.11-1.55-20.73,1.42-37,7.72-47.28,12.74-36.43-2.72-80.28-1.86-128.58,8.03-12.9,2.64-25.12,5.73-36.65,9.1-7.59-.9-20.06-1.26-33.27,4.26-12.53,5.23-20.1,13.4-23.83,17.51-25.62,28.26-52.97,60.87-53.66,61.7-23.59,28.11-57.29,38.88-124.69,60.41-37.78,12.07-68,17.23-82.27,43.79-5.1,9.49-6.56,18.76-7,25.14-12.1,20.9-26.48,50.77-36.07,88.67-10.42,41.19-11.41,76.98-10.16,102.22-5.37,12.87-11.17,30.84-13.33,52.85-3.46,35.15,4.05,63.56,9.81,79.91-5.32,36.59-8.82,99.79,18.67,168.34,8.74,21.79,19.1,40.38,29.37,55.85-3.33,4.14-7.18,10.37-6.38,17.33,2.29,19.89,40.66,29.6,82.66,42.22,28.85,8.67,70.84,22.14,122.3,41.86,5.41,15.16,15.65,37.55,35.69,57.88,35.17,35.66,79.67,43.37,141.65,53.34,28.15,4.53,69.02,9.06,119.17,7.31,6.41,4.61,17.73,11.52,33.42,15.07,17.87,4.04,32.75,1.76,40.74-.07,7.92,1.8,22.63,4.04,40.31.07,15.73-3.54,27.06-10.47,33.42-15.07,50.15,1.75,91.02-2.78,119.17-7.31,61.98-9.97,106.48-17.68,141.65-53.34,20.04-20.32,30.29-42.71,35.69-57.88,51.47-19.72,93.45-33.19,122.3-41.86,42-12.62,80.37-22.32,82.66-42.22.8-6.96-3.05-13.19-6.38-17.33,10.27-15.47,20.63-34.06,29.37-55.85,27.49-68.55,24-131.76,18.67-168.34,5.76-16.35,13.27-44.76,9.81-79.91-2.16-22.01-7.97-39.98-13.33-52.85,1.25-25.25.26-61.03-10.16-102.22-9.59-37.9-23.97-67.77-36.07-88.67-.43-6.38-1.9-15.65-7-25.14-14.27-26.56-44.48-31.71-82.27-43.79-67.4-21.53-101.1-32.3-124.69-60.41-.7-.83-28.04-33.45-53.66-61.7-3.73-4.11-11.29-12.28-23.83-17.51-13.21-5.52-25.68-5.16-33.27-4.26-11.53-3.37-23.76-6.46-36.65-9.1-48.29-9.9-92.15-10.75-128.58-8.03-10.28-5.02-26.55-11.31-47.28-12.74-11.74-.81-21.99.15-30.12,1.55Z"/>
  </g>
  <g id="decolines">
    <ellipse class="cls-20" cx="639.25" cy="511.18" rx="292.89" ry="273.78"/>
    <ellipse class="cls-13" cx="639.25" cy="511.18" rx="265.56" ry="248.22"/>
    <ellipse class="cls-11" cx="639.25" cy="511.18" rx="400.52" ry="374.37"/>
    <path class="cls-12" d="M876.79,36.56c23.19,35.2,46.37,70.39,69.56,105.59-14.89,13.92-29.79,27.84-44.68,41.77,5.22,3.94,17.04,13.06,32.28,26.93,16.57-15.49,33.14-30.97,49.71-46.46,72.61,28.33,145.22,56.66,217.84,84.99"/>
    <path class="cls-12" d="M422.03,31.16c-23.88,35.71-47.76,71.42-71.64,107.12,13.15,10.12,26.31,20.24,39.46,30.36,71.05-45.29,156.92-71.76,249.4-71.76s171.5,24.41,240.84,66.44c10.56-9.58,21.13-19.16,31.69-28.74-23.88-35.71-47.76-71.42-71.64-107.12"/>
    <path class="cls-12" d="M381.94,40.6c-23.19,35.2-46.37,70.39-69.56,105.59,14.89,13.92,29.79,27.84,44.68,41.77-5.22,3.94-17.04,13.06-32.28,26.93-16.57-15.49-33.14-30.97-49.71-46.46-70.56,27.1-141.11,54.19-211.67,81.29"/>
    <path class="cls-17" d="M1236.15,732c-77.3,32.44-154.61,64.89-231.91,97.33-14.83-13.18-29.66-26.36-44.48-39.54,16.9-15.34,123.43-115.37,122.72-278.62-.7-162.3-106.86-261.1-123.93-276.46,14.01-11.86,28.01-23.71,42.02-35.57,71.49,27.49,142.99,54.97,214.48,82.46"/>
    <path class="cls-17" d="M886.7,999.81l64.33-108.49c-16.72-17.25-33.45-34.49-50.17-51.74,5.94-4.23,12.04-8.79,18.27-13.7,6.21-4.89,12.05-9.75,17.54-14.52,0,0,39.33,35.62,58.99,53.43,74.91-32.26,149.81-64.52,224.72-96.78"/>
    <path class="cls-17" d="M846.05,1009.43l72.82-118.11c-13.44-12.25-26.88-24.51-40.32-36.76-33.2,21.6-119.29,71.25-239.3,70.92-135.79-.37-229.86-64.5-260.48-87.37l-46.84,47.44,72.82,118.11-40.66-9.62-64.33-108.49,60.11-61.99c-5.72-4.63-11.59-9.6-17.55-14.92-5.48-4.9-10.66-9.75-15.53-14.51-23.89,21.64-47.77,43.27-71.66,64.91l-199.64-77.27-19.75-40.4,210.81,82.2c17.32-15.89,34.64-31.78,51.96-47.67-20.19-22.37-102.03-118.14-102.5-264.71-.48-152.93,87.97-251.83,107.59-272.76-14.01-11.86-28.01-23.71-42.02-35.57l-214.48,82.46"/>
    <path class="cls-17" d="M20.6,435.61c36.34-.1,72.68-.2,109.02-.29"/>
    <line class="cls-17" x1="12.77" y1="463.13" x2="94.02" y2="463.76"/>
    <line class="cls-17" x1="12.77" y1="559.08" x2="72.18" y2="559.08"/>
    <line class="cls-10" x1="15.27" y1="587.54" x2="85.6" y2="587.54"/>
    <path class="cls-10" d="M451.72,1008.98c-1.02-35.54,26.11-62.15,51.92-62.22,28.24-.08,57.62,31.6,51.06,70.54"/>
    <path class="cls-10" d="M701.42,1018.1c-6.22-39.28,18.06-71.98,43.35-76.03,28.02-4.49,65.44,24.88,65.06,70.31"/>
    <path class="cls-10" d="M452.89,24.54c.13,30.38,25.76,54.63,55.14,53.43,29.99-1.22,53.78-28.53,50.45-59.37"/>
    <path class="cls-10" d="M708.56,18.01c-5.67,32.92,18.58,61.63,45.78,63.29,27.87,1.7,55.91-25.18,52.93-59.33"/>
    <line class="cls-10" x1="1152.24" y1="399.85" x2="1249.57" y2="399.85"/>
    <line class="cls-10" x1="1102.12" y1="422.18" x2="1248.07" y2="422.18"/>
    <line class="cls-10" x1="1129.36" y1="564.31" x2="1255.95" y2="564.31"/>
    <line class="cls-10" x1="1158.57" y1="585.01" x2="1249.57" y2="585.01"/>
  </g>
  <g id="screen">
    <rect class="cls-18" x="461.68" y="333.61" width="355.15" height="355.15"/>
  </g>
  <g id="screeninside">
    <path class="cls-3" d="M576.61,418.7c13.6,0,24.67,11.07,24.67,24.67v195.03c0,13.6-11.07,24.67-24.67,24.67h-65.05c-13.6,0-24.67-11.07-24.67-24.67v-195.03c0-13.6,11.07-24.67,24.67-24.67h65.05M576.61,417.59h-65.05c-14.24,0-25.78,11.54-25.78,25.78v195.03c0,14.24,11.54,25.78,25.78,25.78h65.05c14.24,0,25.78-11.54,25.78-25.78v-195.03c0-14.24-11.54-25.78-25.78-25.78h0Z"/>
    <line class="cls-14" x1="485.78" y1="403.06" x2="597.68" y2="403.06"/>
    <path class="cls-14" d="M683.05,575.13h111.9-111.9Z"/>
  </g>
  <g id="symbols">
    <path class="cls-15" d="M302.04,367.55l3.62,29.11c10.58-.34,21.15-.68,31.73-1.02"/>
    <path class="cls-15" d="M305.44,395.52c9.24-12.99,18.49-25.97,27.73-38.96"/>
    <path class="cls-15" d="M360.37,342.19c-8.52-6.33-17.04-12.66-25.57-18.99,5.19-7.27,10.38-14.55,15.57-21.82,4.74,5.14,10.49,9.21,16.19,13.25,1.74,1.23,3.58,2.5,5.7,2.78,4.53.59,8.27-3.44,10.7-7.31s4.93-8.35,9.33-9.59c-8.79-4.91-16.94-10.98-24.16-18.01"/>
    <path class="cls-15" d="M392.04,235.66c1.46,3.23,3.52,6.92,7.05,7.29,2.64.28,5.02-1.47,7.06-3.17,6.93-5.74,13.5-11.9,19.67-18.44,9.65,6.75,19.3,13.51,28.95,20.26,2.18,1.53,4.58,3.41,4.77,6.07.19,2.66-1.91,4.87-3.86,6.7-7.43,6.97-14.87,13.95-22.3,20.92-2.04,1.91-4.32,3.94-7.11,4.11-2.56.16-4.92-1.29-7.03-2.76-6.27-4.34-12.13-9.29-17.46-14.74,5.43-6.19,10.87-12.37,16.3-18.56,1.79-2.04,3.79-4.2,6.47-4.67,4.33-.76,7.93,3.14,10.59,6.65-4.54,4.58-9.08,9.16-13.62,13.74"/>
    <path class="cls-15" d="M503.43,183.76c-12.91,7.76-25.31,16.37-37.7,26.18,8.73,10.84,18.71,20.68,29.68,29.25,10.03-8.74,20.06-17.48,30.09-26.23-6.5-10.03-14.12-19.34-22.49-27.88,0-.06,0-.13,0-.19h.38"/>
    <path class="cls-15" d="M478.6,206.37c11.44,3.15,23.13,5.37,34.92,6.64"/>
    <path class="cls-15" d="M496.21,194.53c.54,10.9.03,21.86-1.52,32.67"/>
    <path class="cls-15" d="M562.86,197.98c6.39-2.39,13.29-3.42,20.1-2.99,2.29.15,4.63.47,6.67,1.51s3.78,2.92,4.14,5.19c.4,2.48-.91,4.98-2.76,6.67s-4.2,2.72-6.5,3.72c-1.47.64-2.98,1.29-4.57,1.46s-3.34-.22-4.44-1.38c-1.11-1.17-1.4-2.88-1.64-4.48-.81-5.52-1.63-11.04-2.44-16.55-.78-5.3-1.56-10.78-.22-15.97,1.73-6.73,7.17-12.38,13.84-14.35,6.49-1.92,14.11-.19,18.65,4.83,3.59,3.96,5.01,9.39,6.04,14.63,1.98,10.05,2.96,20.3,2.94,30.55"/>
    <path class="cls-15" d="M557.91,186.12c21.6-5.77,43.84-9.19,66.18-10.17"/>
    <path class="cls-15" d="M653.96,158.04c8.07,5.83,13.79,14.83,15.64,24.61,1.27,6.72-.12,15.1-6.37,17.87-6.25,2.77-13.98-2.59-15.21-9.31-1.23-6.73,2.67-13.57,8.09-17.74,8.77-6.74,21.72-7.47,31.19-1.76s14.87,17.51,13,28.41c-1.03,6.03-5.66,12.53-11.72,11.7-4.14-.57-7.18-4.6-7.72-8.75s.94-8.3,2.91-11.99c4.94-9.26,13.19-16.7,22.9-20.67"/>
    <path class="cls-15" d="M733.55,223.08c5.93-11.11,13.06-21.58,21.24-31.16l19.27,9.99c-5.96,9.36-11.91,18.73-17.87,28.09,5.58,3,11.17,6,16.75,9,1.06.57,2.23,1.16,3.41.9,1.19-.26,2.02-1.32,2.74-2.31,6-8.23,12-16.46,18-24.69"/>
    <path class="cls-15" d="M827.63,224.05c6.74,2.39,12.46,7.53,15.55,13.98,1.44,3.01,2.27,6.75.47,9.56-1.41,2.2-4.1,3.24-6.69,3.55-2.32.27-5.03-.13-6.29-2.09-1.57-2.43-.02-5.63,1.67-7.99,4.65-6.49,10.48-12.14,16.62-16.14,8.47,5.37,16.34,11.7,23.41,18.81"/>
    <path class="cls-15" d="M853.56,265.07c7.6-5.7,14.08-12.88,18.88-21.07v-.16"/>
    <path class="cls-15" d="M819.24,271.9l11.25-5.01"/>
    <path class="cls-15" d="M836.47,272.84c.66,5.77,1.32,11.53,1.98,17.3"/>
    <path class="cls-15" d="M912.41,267.72c2,16.98,3.44,34.02,4.32,51.1-9.02-10.98-20.81-19.28-32.45-27.44,19.01,2.24,38.16,3.31,57.3,3.08h.09"/>
    <path class="cls-15" d="M870.13,311.88l18.26-2.08"/>
    <path class="cls-15" d="M901.73,317.11c-4.23,5.07-8.09,10.45-11.52,16.09"/>
    <path class="cls-15" d="M285.78,659.02c6.84.13,13.68.27,20.52.4-.21,7.06-.41,14.11-.62,21.17"/>
    <path class="cls-15" d="M309.57,620.85c-2.53,9.26-6.34,18.18-11.27,26.42,7.82-.32,15.64-.64,23.6-.63-.57,6.32-1.13,12.65-1.7,18.97,10.19-1.56,20.38-3.11,30.57-4.67"/>
    <path class="cls-15" d="M317.34,638.93c4.94-5.42,10.42-10.35,16.33-14.68"/>
    <path class="cls-15" d="M333.09,648.98c5.2-3.06,10.39-6.12,15.59-9.18"/>
    <path class="cls-15" d="M354.85,692.78c-8.35,8.58-16.7,17.16-25.04,25.75,1.51-1.21,3.68.12,5.13,1.41,7.38,6.57,14.76,13.14,22.14,19.71,1.91-3.7,5.27-6.39,8.52-9s6.57-5.36,8.38-9.11,1.64-8.79-1.51-11.52c-3.15-2.73-8.42-2.05-11.27.99s-3.38,7.8-1.92,11.71,4.64,6.98,8.26,9.04,7.68,3.21,11.73,4.21"/>
    <path class="cls-15" d="M368.71,680.22c-.76,6.2-2.24,12.31-4.4,18.16"/>
    <path class="cls-15" d="M377.18,705.59c5.21-2.39,10.94-3.63,16.68-3.61"/>
    <path class="cls-15" d="M398.83,758.85c7-5.78,14-11.55,21-17.33,3.29,5.12,7.56,9.6,12.51,13.14-5.64,7-11.28,13.99-16.92,20.99-1.04,1.3-2.15,2.86-1.76,4.47.28,1.15,1.25,1.98,2.17,2.73,2.97,2.42,5.93,4.83,8.9,7.25,1.01.83,2.13,1.69,3.43,1.74,1.73.06,3.14-1.3,4.32-2.57,5.25-5.63,10.51-11.27,15.76-16.9"/>
    <path class="cls-15" d="M463.99,815.03c14.23,3.65,30.5-3.44,37.5-16.35,1.48-2.72,2.59-5.76,2.42-8.85s-1.84-6.24-4.67-7.5c-2.47-1.1-5.44-.6-7.77.76s-4.12,3.5-5.62,5.75c-3.63,5.44-5.9,11.87-6,18.42s2.05,13.18,6.33,18.13c6.53,7.56,17.97,10.41,27.28,6.8,9.31-3.61,15.84-13.43,15.57-23.41-.06-2.26-.46-4.58-1.66-6.5s-3.3-3.38-5.57-3.34c-2.67.05-4.88,2.06-6.55,4.14-5.53,6.93-8.06,16.18-6.82,24.96s6.23,16.97,13.46,22.1"/>
    <path class="cls-15" d="M567.56,810.15l-.63,38.9c-.02,1.19.04,2.56.97,3.3.71.57,1.71.58,2.63.55,14.99-.37,29.99-.74,44.98-1.11-1.88-9.63,1.47-19.53.98-29.33-.15-3.06-.75-6.25-2.72-8.6-2.35-2.8-6.44-3.86-9.98-2.95s-6.49,3.62-8.1,6.9c-1.06,2.15-1.58,4.77-.52,6.93,1.38,2.81,4.81,3.83,7.89,4.39,8.35,1.53,16.92,1.88,25.37,1.02"/>
    <path class="cls-15" d="M552.49,839.09c23.71.07,47.41.14,71.12.2"/>
    <rect class="cls-15" x="665.51" y="808.69" width="50.07" height="44.23"/>
    <path class="cls-15" d="M673.91,820.06c10.91,5.82,21.32,12.58,31.08,20.17"/>
    <path class="cls-15" d="M677.96,841.38c8.87-8.05,17.74-16.1,26.61-24.15"/>
    <path class="cls-15" d="M800.86,819.64c-9.03,7.25-18.57,13.85-28.54,19.75-9.18-10.38-18.36-20.75-27.54-31.13-.57-.64-1.17-1.36-1.17-2.22,0-1.09.94-1.91,1.8-2.57,9.48-7.32,18.96-14.64,28.44-21.96.73-.56,1.53-1.15,2.45-1.11,1.18.04,2.05,1.09,2.75,2.04,5.22,7.06,10.43,14.12,15.65,21.19.76,1.02,1.55,2.15,1.5,3.43-.04,1.1-.71,2.06-1.37,2.94-2.35,3.13-4.96,6.12-8.15,8.4-3.19,2.28-7,3.81-10.91,3.81s-7.91-1.7-10.22-4.87-2.63-7.8-.35-10.99c2.1-2.93,6.07-4.21,9.6-3.51s6.56,3.2,8.37,6.31,2.48,6.79,2.96,10.39"/>
    <path class="cls-15" d="M848.85,741.23c8.34,7.38,16.42,15.06,24.21,23.02-4.8,4.57-9.6,9.13-14.4,13.7-5.05-8.72-12.41-15.84-19.66-22.83-1.18-1.14-2.52-2.35-4.16-2.42-1.45-.06-2.76.79-3.95,1.62-5.08,3.51-10.09,7.13-15.03,10.84,8.68,10.28,17.37,20.56,26.05,30.84"/>
    <path class="cls-15" d="M880.17,741.12c10.68-8.31,21.37-16.62,32.05-24.93"/>
    <path class="cls-15" d="M883.79,713.44c9.35,1.04,18.71,2.08,28.22,3.1.41,9.79.31,19.61-.16,29.4l.07.07"/>
  </g>
  <g id="evloute">
    <circle id="evoback" class="cls-8" cx="176.29" cy="530.3" r="105.81"/>
    <circle id="evofront" class="cls-16" cx="176.29" cy="530.3" r="74.82"/>
    <g id="Evolutionsymbol">
      <g>
        <path class="cls-1" d="M234.11,516.69c-.96-.68-2.28-.45-2.96.51-.68.96-.45,2.28.51,2.96,3.16,2.23,6.92,5.79,6.92,10.11,0,6.68-9.34,13.65-25.11,18.07-1.77-5.91-4.14-12.09-7.04-18.33,2.79-6.08,5.07-12.09,6.79-17.84,4.14,1.14,7.95,2.49,11.31,4.01.28.13.58.19.88.19.81,0,1.58-.46,1.94-1.25.48-1.07.01-2.33-1.06-2.81-3.56-1.61-7.57-3.03-11.93-4.23.91-3.57,1.59-7,2-10.24,1.72-.39,3.24-1.47,4.13-3.03.85-1.47,1.08-3.19.64-4.84-.44-1.64-1.5-3.02-2.97-3.87-.52-.3-1.09-.53-1.67-.67-.86-6.11-3.33-10.5-7.21-12.74-6.55-3.78-16.14-1.02-27.01,7.77-2.03,1.64-4.07,3.47-6.1,5.45-2.05-2-4.11-3.85-6.17-5.51-10.87-8.79-20.46-11.55-27.01-7.77-3.91,2.25-6.38,6.69-7.23,12.88-.48.14-.95.34-1.38.59-1.47.85-2.53,2.22-2.97,3.87-.44,1.64-.21,3.36.64,4.84.85,1.48,2.26,2.53,3.87,2.97.42,3.28,1.1,6.76,2.03,10.37-3.54.98-6.84,2.11-9.86,3.36-1.14-1.09-2.69-1.76-4.39-1.76-3.51,0-6.37,2.86-6.37,6.37,0,.44.04.87.13,1.28-5.07,3.86-7.75,8.29-7.75,12.86,0,7.56,7.19,14.49,20.23,19.5,2.44.94,5.04,1.79,7.77,2.56-1.12,4.34-1.89,8.49-2.27,12.34-.11,1.17.74,2.21,1.91,2.32.07,0,.14.01.21.01,1.08,0,2-.82,2.11-1.92.36-3.64,1.09-7.57,2.15-11.69,5.97,1.43,12.48,2.47,19.32,3.09,3.88,5.49,7.96,10.52,12.09,14.91-11.77,11.57-22.56,16.24-28.38,12.88-3.74-2.16-4.94-7.2-5.29-11.05-.11-1.17-1.14-2.03-2.31-1.92-1.17.11-2.03,1.14-1.92,2.31.63,6.96,3.19,11.92,7.4,14.34,1.91,1.11,4.09,1.65,6.48,1.65,5.79,0,12.84-3.2,20.53-9.42,2.15-1.73,4.3-3.67,6.44-5.78,2.7,2.66,5.42,5.03,8.09,7.06,0,0,0,.01,0,.02-.44,1.64-.21,3.36.64,4.84,1.13,1.97,3.25,3.19,5.52,3.19,1.11,0,2.21-.3,3.18-.85.46-.26.87-.58,1.23-.93,2.95,1.2,5.71,1.8,8.23,1.8s4.58-.55,6.48-1.65c6.55-3.78,8.95-13.47,6.78-27.27-.42-2.65-1-5.41-1.72-8.23,2.81-.79,5.49-1.66,7.99-2.62,13.05-5.02,20.23-11.94,20.23-19.5,0-4.86-3.02-9.55-8.72-13.58ZM209.37,549.39c-4.59,1.08-9.63,1.95-15.08,2.56,1.73-2.64,3.41-5.37,5.03-8.17,1.68-2.91,3.26-5.84,4.73-8.78,2.14,4.9,3.93,9.73,5.32,14.38ZM156.4,519c2.23-3.86,4.52-7.49,6.84-10.87,4.25-.34,8.62-.52,13.05-.52s8.64.17,12.82.5c2.31,3.37,4.58,6.98,6.8,10.83,2.13,3.68,4.08,7.39,5.85,11.07-1.84,3.88-3.88,7.78-6.12,11.65-2.21,3.84-4.49,7.44-6.79,10.8-4.01.3-8.2.46-12.57.46s-8.71-.17-12.78-.48c-2.37-3.45-4.67-7.08-6.84-10.85-2.22-3.84-4.25-7.72-6.08-11.57,1.76-3.67,3.7-7.36,5.82-11.01ZM148.32,525.02c-2.04-4.72-3.75-9.37-5.09-13.84,4.55-1.07,9.44-1.91,14.55-2.51-1.74,2.65-3.43,5.39-5.06,8.21-1.56,2.7-3.03,5.42-4.4,8.14ZM176.18,491.92c3.22,3.41,6.5,7.33,9.74,11.72-3.17-.18-6.39-.28-9.64-.28s-6.62.1-9.87.29c3.25-4.4,6.53-8.32,9.76-11.73ZM204.02,525.01c-1.39-2.73-2.87-5.47-4.44-8.19-1.62-2.81-3.3-5.54-5.03-8.18,5.12.59,10.01,1.42,14.57,2.48-1.35,4.48-3.06,9.15-5.1,13.89ZM216.83,492.68c-.38.66-1.08,1.06-1.84,1.06-.37,0-.73-.1-1.06-.29-.49-.28-.84-.74-.99-1.29-.15-.55-.07-1.12.21-1.61.34-.59.95-.98,1.62-1.05.08,0,.15-.02.22-.02.37,0,.73.1,1.06.29.49.28.84.74.99,1.29.15.55.07,1.12-.21,1.61ZM207.17,476.38c3.24,1.87,4.58,5.91,5.1,9.49-1.16.55-2.15,1.43-2.81,2.57-.85,1.47-1.08,3.19-.64,4.84s1.5,3.02,2.97,3.87c.12.07.23.13.35.19-.39,3.07-1.03,6.32-1.89,9.7-5.83-1.37-12.18-2.37-18.83-2.98-3.94-5.59-8.08-10.69-12.29-15.13,11.64-11.32,22.27-15.87,28.03-12.54ZM135.54,491.07c.15-.55.5-1.01.99-1.29.32-.19.68-.28,1.05-.28.01,0,.03,0,.04,0,.75.01,1.44.41,1.81,1.06.28.49.36,1.06.21,1.61-.15.55-.5,1.01-.99,1.29-.33.19-.68.29-1.06.29-.76,0-1.46-.41-1.84-1.06-.28-.49-.36-1.06-.21-1.61ZM140.18,497.44c.2-.09.4-.19.6-.3,1.47-.85,2.53-2.22,2.97-3.87.44-1.64.21-3.36-.64-4.84-.71-1.23-1.8-2.16-3.07-2.69.53-3.57,1.87-7.57,5.1-9.43,5.77-3.33,16.43,1.23,28.09,12.6-4.22,4.45-8.37,9.56-12.33,15.16-6.65.62-13,1.64-18.82,3.02-.87-3.36-1.51-6.59-1.9-9.65ZM125.85,516.12c0,1.17-.95,2.12-2.12,2.12s-2.12-.95-2.12-2.12.95-2.12,2.12-2.12,2.12.95,2.12,2.12ZM113.98,530.27c0-3.75,2.84-6.94,5.72-9.21,1.1.9,2.5,1.43,4.02,1.43,3.51,0,6.37-2.86,6.37-6.37,0-.28-.02-.55-.05-.82,2.78-1.14,5.82-2.17,9.07-3.08,1.72,5.73,4,11.72,6.78,17.78-2.89,6.22-5.26,12.38-7.02,18.26-15.63-4.42-24.89-11.36-24.89-18.01ZM142.98,549.34c1.4-4.62,3.19-9.44,5.32-14.33,1.46,2.91,3.02,5.82,4.69,8.7,1.62,2.81,3.32,5.55,5.06,8.21-5.44-.62-10.49-1.5-15.07-2.59ZM176.29,557.17c3.18,0,6.32-.09,9.41-.26-3.16,4.28-6.34,8.1-9.48,11.45-3.23-3.44-6.42-7.29-9.52-11.46,3.15.18,6.36.27,9.6.27ZM188.59,584.22c-.28-.49-.36-1.06-.21-1.61.05-.2.14-.39.24-.56,0,0,0,0,.01-.01.02-.02.03-.04.04-.07.18-.26.41-.48.69-.65.32-.19.69-.29,1.06-.29.76,0,1.46.41,1.84,1.06.59,1.01.24,2.32-.78,2.9-.33.19-.68.29-1.06.29-.76,0-1.47-.41-1.84-1.06ZM212.14,561.29c1.86,11.78.14,20.14-4.7,22.93-3.21,1.86-7.34,1.02-10.69-.29.17-1.33-.08-2.72-.8-3.97-1.13-1.97-3.25-3.19-5.52-3.19-1.11,0-2.21.3-3.18.85-.19.11-.37.23-.54.35-2.49-1.9-5.02-4.12-7.55-6.6,4.12-4.39,8.18-9.4,12.04-14.87,6.83-.61,13.33-1.64,19.31-3.06.69,2.69,1.24,5.31,1.64,7.84Z"/>
        <path class="cls-4" d="M121.6,516.12c0,1.17.95,2.12,2.12,2.12s2.12-.95,2.12-2.12-.95-2.12-2.12-2.12-2.12.95-2.12,2.12Z"/>
        <path class="cls-2" d="M192.27,582.09c-.38-.66-1.08-1.06-1.84-1.06-.37,0-.73.1-1.06.29-.28.16-.52.38-.69.65-.01.02-.03.04-.04.07,0,0,0,0-.01.01-.11.17-.19.36-.24.56-.15.55-.07,1.12.21,1.61.38.66,1.08,1.06,1.84,1.06.37,0,.73-.1,1.06-.29,1.01-.59,1.36-1.89.78-2.9Z"/>
        <path class="cls-4" d="M216.05,489.78c-.33-.19-.68-.29-1.06-.29-.07,0-.14,0-.21.01-.68.07-1.29.46-1.63,1.05-.28.49-.36,1.06-.21,1.61.15.55.5,1.01.99,1.29.33.19.68.29,1.06.29.76,0,1.46-.41,1.84-1.06.28-.49.36-1.06.21-1.61s-.5-1.01-.99-1.29Z"/>
        <path class="cls-2" d="M137.59,493.75c.37,0,.73-.1,1.06-.29.49-.28.84-.74.99-1.29.15-.55.07-1.12-.21-1.61-.37-.65-1.07-1.05-1.81-1.06-.01,0-.03,0-.04,0-.37,0-.72.1-1.05.28-.49.28-.84.74-.99,1.29-.15.55-.07,1.12.21,1.61.38.66,1.09,1.06,1.84,1.06Z"/>
        <path class="cls-5" d="M176.29,540.89c5.86,0,10.62-4.76,10.62-10.62s-4.76-10.62-10.62-10.62-10.62,4.76-10.62,10.62,4.76,10.62,10.62,10.62Z"/>
        <path class="cls-1" d="M176.29,545.13c8.2,0,14.87-6.67,14.87-14.87s-6.67-14.87-14.87-14.87-14.87,6.67-14.87,14.87,6.67,14.87,14.87,14.87ZM176.29,519.65c5.86,0,10.62,4.76,10.62,10.62s-4.76,10.62-10.62,10.62-10.62-4.76-10.62-10.62,4.76-10.62,10.62-10.62Z"/>
      </g>
    </g>
  </g>
  <g id="next">
    <ellipse id="nextback" class="cls-6" cx="1052.38" cy="620.64" rx="120.24" ry="75.93"/>
    <ellipse id="nextfront" class="cls-9" cx="1052.38" cy="620.64" rx="72.07" ry="45.51"/>
    <g id="arrowdown">
      <g id="arrowdown-2" data-name="arrowdown">
        <path class="cls-3" d="M1014.5,607.99c0,.68.26,1.28.78,1.8l36.46,36.45c.52.52,1.12.78,1.8.78s1.28-.26,1.8-.78l36.45-36.45c.52-.52.78-1.12.78-1.8s-.26-1.28-.78-1.8l-3.91-3.91c-.52-.52-1.12-.78-1.8-.78s-1.28.26-1.8.78l-30.74,30.74-30.74-30.74c-.52-.52-1.12-.78-1.8-.78s-1.28.26-1.8.78l-3.91,3.91c-.52.52-.78,1.12-.78,1.8Z"/>
      </g>
    </g>
  </g>
  <g id="previous">
    <ellipse id="preback" class="cls-6" cx="1052.38" cy="357.55" rx="120.24" ry="75.93"/>
    <ellipse id="prefront" class="cls-9" cx="1052.38" cy="357.55" rx="72.07" ry="45.51"/>
    <g id="arrowup">
      <g id="arrowup-2" data-name="arrowup">
        <path class="cls-3" d="M1015.28,375.62l3.91,3.91c.52.52,1.12.78,1.8.78s1.28-.26,1.8-.78l30.74-30.74,30.74,30.74c.52.52,1.12.78,1.8.78s1.28-.26,1.8-.78l3.91-3.91c.52-.52.78-1.12.78-1.8s-.26-1.28-.78-1.8l-36.45-36.45c-.52-.52-1.12-.78-1.8-.78s-1.28.26-1.8.78l-36.46,36.45c-.52.52-.78,1.12-.78,1.8s.26,1.28.78,1.8Z"/>
      </g>
    </g>
  </g>
</svg>